<svg width="579" height="126" viewBox="0 0 579 126" fill="none" xmlns="http://www.w3.org/2000/svg">
<path d="M19.5154 1.29443C19.5923 0.808594 20.0112 0.450867 20.5031 0.450867H70.0821C70.6968 0.450867 71.166 1.00021 71.0698 1.60733L67.7536 22.5413C67.6767 23.0271 67.2578 23.3849 66.7659 23.3849H41.3691C40.8772 23.3849 40.4583 23.7426 40.3814 24.2284L36.4542 49.0204C36.358 49.6275 36.8272 50.1769 37.4419 50.1769H60.1201C60.7348 50.1769 61.204 50.7262 61.1078 51.3333L57.7916 72.2683C57.7147 72.7542 57.2958 73.1119 56.8039 73.1119H33.4931C33.0012 73.1119 32.5823 73.4696 32.5054 73.9554L24.6326 123.663C24.5557 124.149 24.1368 124.507 23.6449 124.507H1.17085C0.556177 124.507 0.0870073 123.958 0.183166 123.35L19.5154 1.29443Z" fill="#0FA84B"/>
<path d="M59.5847 93.8579L74.2451 1.29443C74.3221 0.808586 74.7409 0.450859 75.2328 0.450859H97.7069C98.3215 0.450859 98.7907 1.00019 98.6946 1.6073L84.0827 93.8579C83.7967 95.6659 84.1037 97.2299 85.0077 98.5489C85.3257 99.1749 85.7777 99.7139 86.3667 100.165C86.9557 100.618 87.6847 100.946 88.5567 101.155C89.3457 101.435 90.1587 101.573 90.9927 101.573C93.2157 101.573 95.2177 100.894 96.9957 99.5399C98.7737 98.1839 99.8557 96.2909 100.241 93.8579L114.902 1.29441C114.979 0.808578 115.398 0.450859 115.89 0.450859H138.364C138.979 0.450859 139.448 1.00019 139.352 1.6073L124.74 93.8579C123.507 101.643 120.607 108.106 116.04 113.248C113.675 115.891 111.066 118.095 108.214 119.868C105.363 121.641 102.117 123.047 98.4767 124.09C94.9867 125.063 91.2247 125.549 87.1947 125.549C82.9547 125.549 79.2637 125.045 76.1227 124.039C72.9807 123.032 70.2617 121.658 67.9657 119.92C63.1287 116.238 60.2587 111.094 59.3587 104.492C58.9027 101.226 58.9787 97.6809 59.5847 93.8579Z" fill="#0FA84B"/>
<path d="M127.312 124.507C126.697 124.507 126.228 123.957 126.324 123.35L145.656 1.29431C145.733 0.808472 146.152 0.450745 146.644 0.450745H169.117C169.732 0.450745 170.201 1.00008 170.105 1.60719L154.454 100.416C154.358 101.023 154.827 101.573 155.442 101.573H178.641C179.256 101.573 179.725 102.122 179.629 102.729L176.313 123.663C176.237 124.149 175.818 124.507 175.326 124.507H127.312Z" fill="#0FA84B"/>
<path d="M181.521 124.507C180.906 124.507 180.437 123.957 180.533 123.35L199.865 1.29431C199.942 0.808472 200.361 0.450745 200.853 0.450745H223.326C223.941 0.450745 224.41 1.00008 224.314 1.60719L208.663 100.416C208.567 101.023 209.036 101.573 209.651 101.573H232.85C233.465 101.573 233.934 102.122 233.838 102.729L230.522 123.663C230.445 124.149 230.027 124.507 229.535 124.507H181.521Z" fill="#0FA84B"/>
<path d="M235.104 124.507C234.49 124.507 234.021 123.957 234.117 123.35L249.766 24.5412C249.863 23.9341 249.393 23.3847 248.779 23.3847H231.833C231.219 23.3847 230.75 22.8354 230.846 22.2283L234.162 1.29428C234.239 0.808456 234.658 0.450745 235.15 0.450745H296.197C296.811 0.450745 297.281 1.00009 297.184 1.60721L293.868 22.5412C293.791 23.027 293.372 23.3847 292.881 23.3847H275.302C274.81 23.3847 274.391 23.7425 274.314 24.2283L258.565 123.663C258.488 124.149 258.069 124.507 257.578 124.507H235.104Z" fill="#0FA84B"/>
<path d="M458.944 0.450867C459.496 0.450867 459.943 0.897797 459.944 1.44958L460.007 50.0739C459.996 53.2009 459.888 56.6239 459.683 60.3419C459.475 64.0599 459.164 68.1079 458.75 72.4869C458.43 75.8229 458.132 78.6889 457.856 81.0869C457.581 83.4849 457.287 85.8829 456.978 88.2799C456.667 90.6779 456.306 93.6149 455.895 97.0899C455.633 99.1749 455.351 101.191 455.042 103.136L454.317 107.713C454.221 108.321 454.69 108.87 455.305 108.87H455.364C455.856 108.87 456.274 108.512 456.352 108.027C456.923 104.471 457.552 100.825 458.241 97.0899C458.984 93.0589 459.754 88.9589 460.554 84.7889C461.386 80.4099 462.252 76.2579 463.153 72.3299C464.052 68.4039 465.014 64.5299 466.036 60.7069C466.542 58.8299 467.039 57.0059 467.529 55.2339C468.018 53.4609 468.534 51.7409 469.076 50.0739L484.533 1.1496C484.665 0.733643 485.05 0.450867 485.487 0.450867H518.09C518.705 0.450867 519.174 1.0002 519.078 1.60731L499.745 123.663C499.669 124.149 499.25 124.507 498.758 124.507H476.285C475.67 124.507 475.201 123.958 475.297 123.351L477.441 109.808C478.3 104.387 479.388 98.3919 480.706 91.8249C482.024 85.2569 483.416 78.8819 484.884 72.6949C486.414 66.0929 487.971 59.5599 489.551 53.0959C491.13 46.6329 492.769 40.2389 494.466 33.9139C495.238 30.7869 496.036 27.7299 496.857 24.7399C497.495 22.1982 498.122 19.7304 498.739 17.3376C498.902 16.7043 498.414 16.0869 497.76 16.0869C497.303 16.0869 496.898 16.3969 496.784 16.8396C495.749 20.8718 494.716 24.6861 493.69 28.2849C492.597 32.1079 491.482 35.9649 490.346 39.8569C489.208 43.7489 487.952 48.0579 486.578 52.7829C485.393 56.7449 484.08 60.9849 482.634 65.5019C481.189 70.0209 479.732 74.5039 478.263 78.9499C476.793 83.3989 475.414 87.4989 474.126 91.2509C473.085 94.3109 472.056 97.2979 471.037 100.217C469.95 103.136 468.908 105.986 467.912 108.766L462.324 123.854C462.178 124.246 461.804 124.507 461.386 124.507H444.266C443.734 124.507 443.296 124.091 443.267 123.56L442.475 108.766C442.301 104.595 442.141 100.67 441.994 96.9859C441.848 93.3019 441.738 89.4969 441.666 85.5699C441.591 81.6439 441.564 77.2139 441.581 72.2779C441.519 64.7719 441.521 57.7349 441.589 51.1679C441.655 44.5999 441.807 38.8139 442.045 33.8099C442.112 30.7529 442.207 27.7299 442.335 24.7399C442.443 22.1301 442.568 19.5982 442.706 17.1454C442.738 16.5711 442.282 16.0869 441.707 16.0869H441.629C441.098 16.0869 440.659 16.5019 440.63 17.0323C440.352 22.1174 440.046 27.5703 439.713 33.3929C439.358 39.5789 438.944 46.1469 438.469 53.0959C438.093 58.1009 437.748 62.5829 437.434 66.5439C437.119 70.5049 436.786 74.4679 436.437 78.4289C436.087 82.3909 435.621 86.8729 435.038 91.8779C434.334 98.0639 433.528 104.041 432.614 109.808L430.419 123.663C430.342 124.149 429.924 124.507 429.432 124.507H406.959C406.344 124.507 405.875 123.958 405.971 123.35L425.303 1.29443C425.38 0.808594 425.799 0.450867 426.291 0.450867H458.944Z" fill="#0FA84B"/>
<path d="M559.167 123.663C559.09 124.149 558.671 124.507 558.179 124.507H508.079C507.465 124.507 506.996 123.957 507.092 123.35L526.424 1.29431C526.501 0.808472 526.92 0.450745 527.412 0.450745H576.99C577.604 0.450745 578.074 1.00006 577.977 1.60716L574.662 22.5412C574.585 23.027 574.166 23.3847 573.674 23.3847H548.277C547.785 23.3847 547.366 23.7425 547.289 24.2283L543.858 45.8933C543.762 46.5004 544.231 47.0497 544.845 47.0497H567.524C568.138 47.0497 568.608 47.5991 568.511 48.2062L565.196 69.1412C565.119 69.627 564.7 69.9847 564.208 69.9847H540.897C540.405 69.9847 539.986 70.3425 539.909 70.8283L535.222 100.416C535.126 101.023 535.595 101.573 536.209 101.573H561.495C562.109 101.573 562.579 102.122 562.482 102.729L559.167 123.663Z" fill="#0FA84B"/>
<mask id="mask0_88_2" style="mask-type:luminance" maskUnits="userSpaceOnUse" x="297" y="102" width="54" height="23">
<path d="M297.381 124.5L300.481 102.7H350.381L347.281 124.5H297.381Z" fill="white"/>
</mask>
<g mask="url(#mask0_88_2)">
<path opacity="0.5" d="M-210.919 -437H1001.64L789.081 563H-423.476L-210.919 -437Z" fill="url(#paint0_linear_88_2)"/>
</g>
<mask id="mask1_88_2" style="mask-type:luminance" maskUnits="userSpaceOnUse" x="326" y="0" width="64" height="22">
<path d="M326.681 21.8001L330.281 9.15527e-05H389.081L385.481 21.8001H326.681Z" fill="white"/>
</mask>
<g mask="url(#mask1_88_2)">
<path opacity="0.5" d="M-210.919 -437.5H1001.64L789.081 562.5H-423.476L-210.919 -437.5Z" fill="url(#paint1_linear_88_2)"/>
</g>
<path d="M321 0.618622C321.155 0.244255 321.52 0 321.925 0H348.468C349.18 0 349.664 0.723122 349.393 1.38138L299.043 123.424C298.888 123.799 298.523 124.043 298.118 124.043H271.575C270.863 124.043 270.379 123.32 270.651 122.662L321 0.618622Z" fill="#0FA84B"/>
<path d="M387.002 1.0759C387.157 0.70153 387.522 0.457275 387.927 0.457275H414.47C415.182 0.457275 415.666 1.1804 415.395 1.83865L365.045 123.882C364.89 124.256 364.525 124.5 364.12 124.5H337.577C336.865 124.5 336.381 123.777 336.652 123.119L387.002 1.0759Z" fill="#0FA84B"/>
<defs>
<linearGradient id="paint0_linear_88_2" x1="298.122" y1="113.604" x2="347.366" y2="124.071" gradientUnits="userSpaceOnUse">
<stop stop-color="#EDEEF0"/>
<stop offset="1" stop-color="#0FA84B"/>
</linearGradient>
<linearGradient id="paint1_linear_88_2" x1="327.951" y1="10.8779" x2="385.193" y2="23.045" gradientUnits="userSpaceOnUse">
<stop stop-color="#0FA84B"/>
<stop offset="1" stop-color="#EDEEF0"/>
</linearGradient>
</defs>
</svg>
